#!OML:ASF F:\VICON\USERDATA\INSTALL\rory3\rory3.ASF
:FULLY-SPECIFIED
:DEGREES
9
root -6.192828555844457 17.747109708035907 0.5669607658576341 -18.128310987591973 79.67598441104286 -35.045810213072784
lfemur -27.273092535073662 12.796595032973075 -5.391240336471849
ltibia 29.533998671351483
lfoot -10.737887299263845 5.667303115157273
ltoes -24.282092784133212
rfemur -34.28878985444293 4.1796084489570315 13.580808837016843
rtibia 29.24169468708655
rfoot -8.173572518996249 -3.0040225355601224
rtoes -1.292035380391514
lowerback 1.5884011742695932 2.9058890178061025 -5.136305540062186
upperback 4.45989918428255 3.9215886636642434 2.6143679843337875
thorax 3.2051921734800404 1.7810583186417608 5.627492918624
lowerneck -15.268385081113273 0.9067484232516603 0.6788560694153171
upperneck 37.917780772998064 4.408258803981641 -3.948152117906175
head 16.237578621382497 1.8388586309890573 -0.9189474682990426
lclavicle -5.0081958412418504e-15 -1.0203021528831394e-14
lhumerus 21.617513025550515 -82.55458650119874 73.13199455482122
lradius 28.84910757723936
lwrist 41.0048852863021
lhand 9.289841606840232 68.80167979452258
lfingers 7.125020000000001
lthumb -145.5480174834419 84.51609854976996
rclavicle -5.0081958412418504e-15 -1.0203021528831394e-14
rhumerus -11.850989330021918 3.896590791383058 -102.68198355203812
rradius 38.61171277135345
rwrist -59.17698592404107
rhand -26.96061014088922 -11.705881933612073
rfingers 7.125020000000001
rthumb -0.38203217471600226 -41.68528230082562
10
root -6.210598227633107 17.732910547462605 0.628462501597187 -14.105907721363323 76.73038737463763 -30.821809253876495
lfemur -25.91399361013695 13.62349438639868 -4.28117153356709
ltibia 29.718698370015247
lfoot -11.004086892962738 7.805692999077005
ltoes -23.92269188701555
rfemur -34.66519068092195 4.355748168657924 14.9007067435711
rtibia 28.95759521980136
rfoot -7.851652606713325 -0.08317212742540825
rtoes 4.175461093584122
lowerback 1.8422308732426695 2.459739457717626 -5.643544985453281
upperback 4.395209215854271 3.3157691657830064 2.2628786895142237
thorax 3.071262481386396 1.4707088020072 5.533402975754792
lowerneck -14.872085874931612 2.4301686517263907 0.9022504176399605
upperneck 37.33508124000848 6.665007956702661 -4.325771541530762
head 15.961579583765634 2.733827726910046 -0.7278892729526066
lclavicle -5.008195167603526e-15 -1.020302145958813e-14
lhumerus 31.466710626847693 -82.439684621128 63.4459983438602
lradius 28.736407053323077
lwrist 39.358887073508
lhand 10.005880670706256 55.799985448056475
lfingers 7.125020000000001
lthumb -144.86801832373138 262.3249966760804
rclavicle -5.008195167603526e-15 -1.020302145958813e-14
rhumerus -12.61238719833949 4.804920453360225 -102.31698239737847
rradius 41.32961009784225
rwrist -62.63598525749828
rhand -30.674607510674353 -13.19818083365994
rfingers 7.125020000000001
rthumb -3.9689278147629548 -43.14088190787503
11
root -6.20883828077158 17.725610968947823 0.7230071252646453 -11.110610032142546 73.31118709628285 -27.824211630020812
lfemur -24.22229532178363 14.986393633570808 -3.031612766499171
ltibia 29.619698492363643
lfoot -11.413287729300501 9.456472503073092
ltoes -22.16079379746537
rfemur -35.04459003060432 5.174457479404752 16.2826048426943
rtibia 28.666995451438446
rfoot -7.802572441688183 2.4461655876303077
rtoes 2.1481525026371955
lowerback 1.0825121674911116 1.9420799556776014 -6.5564644598084465
upperback 4.496289213630492 2.6811997012830915 1.9823492062284447
thorax 3.674771392478034 1.098909389575482 5.795732522843913
lowerneck -14.284787454665 4.008947657797266 1.1480447650995083
upperneck 36.3759823719712 8.974027133769118 -4.862370792618313
head 15.493581014275346 3.6499970546141802 -0.6123133303465522
lclavicle -5.008195581655005e-15 -1.0203021445808437e-14
lhumerus 37.37890841520998 -81.61228462987889 58.40090045834273
lradius 28.28870725585883
lwrist 36.73538724481604
lhand 12.548878338886235 63.13248268958881
lfingers 7.125020000000001
lthumb -142.46002089731942 269.05497924758794
rclavicle -5.008195581655005e-15 -1.0203021445808437e-14
rhumerus -13.040288544837715 5.682830054376649 -101.579983649006
rradius 44.16040912706394
rwrist -65.70048170337977
rhand -34.39890613840206 -13.805680670474604
rfingers 7.125020000000001
rthumb -7.564595833379803 -43.65038088478977
12
root -6.205558312715068 17.71361166654842 0.8105607961193222 -10.318909323386137 70.20108912315082 -27.016707912199948
lfemur -22.70489664189261 16.231092118318276 -1.5715643553517449
ltibia 29.741698310370086
lfoot -11.400288050654892 11.121491842423458
ltoes -24.310092122756288
rfemur -35.07298983657618 5.929956916784151 17.923502545824807
rtibia 28.135596115935623
rfoot -7.700102671071904 4.859223769827695
rtoes 3.6737110284179018
lowerback 0.7848626830735133 1.2199707030992712 -6.854123790172925
upperback 4.4563690308516435 1.744500398192511 1.668249804671599
thorax 3.9438907470855273 0.6139981740618788 5.632662796394633
lowerneck -14.090888207178178 5.625656505350543 1.5101537519969872
upperneck 35.92658260435628 11.366996228897165 -5.345740079911714
head 15.413781252258131 4.616056086144646 -0.46880765897991405
lclavicle -5.00819540443445e-15 -1.0203021374153743e-14
lhumerus 48.011306074202764 -81.08378444875206 48.51630513221158
lradius 28.276207538580948
lwrist 34.483388503238984
lhand 13.956576851713619 62.981183780251754
lfingers 7.125020000000001
lthumb -141.13102118057057 268.5389978536875
rclavicle -5.00819540443445e-15 -1.0203021374153743e-14
rhumerus -13.303087835554116 4.640330528550456 -101.01998354191599
rradius 46.93020835281878
rwrist -66.70368227632412
rhand -38.14080372616834 -14.230180321101873
rfingers 7.125020000000001
rthumb -11.175103586385411 -43.9125808781896
13
root -6.188868660646816 17.70701205124821 0.9263233303260947 -9.506712114883342 67.11498874732068 -26.152311657266836
lfemur -20.98369814770401 17.292091522915012 -0.1193908963218151
ltibia 29.9324980095931
lfoot -11.67138780498009 12.767789846396672
ltoes -23.943492123115128
rfemur -34.79748891820742 7.394355669286284 19.239100792908623
rtibia 27.490396817838764
rfoot -7.7192726285858475 6.184973505395407
rtoes 2.541212888912675
lowerback 0.3875242643053398 0.4378314857948924 -7.290783560214623
upperback 4.273828971988976 0.7448951475796945 1.0487009763352093
thorax 4.131060388638971 0.10634598084412572 5.21092361069762
lowerneck -13.179890408201665 7.341145875911229 2.7416001522023405
upperneck 34.853384114411234 13.661795349294055 -6.157568901057846
head 14.997682823969726 5.658255298490268 -0.6537029687125845
lclavicle -5.008195233658614e-15 -1.0203021374153743e-14
lhumerus 52.83830352635657 -80.0620872477524 44.60240621088958
lradius 27.915807586861337
lwrist 30.647391555283264
lhand 14.66087924357308 57.91908589735925
lfingers 7.125020000000001
lthumb -140.46802192556555 263.28497908342706
rclavicle -5.008195233658614e-15 -1.0203021374153743e-14
rhumerus -14.151588992881457 4.240190644178019 -100.34198507702742
rradius 50.616107211453965
rwrist -68.75968103525835
rhand -41.93150183337871 -13.077582321570219
rfingers 7.125020000000001
rthumb -14.829201816287926 -42.526982062131715
14
root -6.1744889425241185 17.686613251441702 1.0544049389851073 -8.761088920314364 64.04728989043 -25.33531130097299
lfemur -19.204399742642767 18.565791381460972 1.351083029066217
ltibia 30.111697720420068
lfoot -11.67228757448086 13.947789598610255
ltoes -24.134593435477154
rfemur -34.708689151476506 8.854474158835483 20.55039900408535
rtibia 27.408796886129988
rfoot -7.678532504970712 7.836703612973013
rtoes 2.8339430927481715
lowerback -0.07086122162272801 -0.4850576767130672 -7.876393442166017
upperback 4.207129761006042 -0.4272129867492107 0.6612357563136889
thorax 4.500339660877962 -0.5050260013531775 5.094973931376371
lowerneck -12.671691615899363 9.111214177161091 2.880379467372618
upperneck 33.867884778132826 16.19459377698833 -6.550568272798245
head 14.649883683217945 6.709964020576308 -0.42757102561136406
lclavicle -5.008195439878331e-15 -1.0203021120606332e-14
lhumerus 64.0032006035417 -78.78788459698896 34.718009886548586
lradius 27.573407325886173
lwrist 27.45419328182319
lhand 15.682877525573067 54.297785184549966
lfingers 7.125020000000001
lthumb -139.50602224909954 259.3729877398228
rclavicle -5.008195439878331e-15 -1.0203021120606332e-14
rhumerus -14.591590507003112 3.5230209727368638 -99.26058567736473
rradius 54.711605194367095
rwrist -70.37848100780141
rhand -45.81069966332589 -11.312682100482512
rfingers 7.125020000000001
rthumb -18.563599597854182 -40.44698267828954
15
root -6.157379302465764 17.671114153358694 1.2062043027789515 -8.58265078185697 61.0240913799766 -24.870610043909352
lfemur -17.183701486796235 19.754390819085362 3.0551409789845927
ltibia 30.673796921651256
lfoot -11.802386281729957 14.942688953669558
ltoes -24.74729267897309
rfemur -34.29169028272273 10.4361933384621 22.021596965969213
rtibia 27.460396773545625
rfoot -7.424592623417737 9.78028242951485
rtoes 5.824789563041124
lowerback -0.6460539129209879 -1.2966469937975602 -8.371822787446902
upperback 4.286129525086791 -1.4219973516493911 0.23427858350956576
thorax 5.068318222956415 -1.0334871520478683 4.866514458246115
lowerneck -11.679994162460103 10.757593378067309 3.449808002256912
upperneck 32.348686704046706 18.418492482547837 -7.252957330029476
head 14.048685467435586 7.7057232587835225 -0.48481754553464396
lclavicle -5.008194911439268e-15 -1.0203021462344085e-14
lhumerus 72.6089981593152 -77.05908558808183 27.564814353119782
lradius 27.384907234374534
lwrist 24.481395702320345
lhand 16.037275840283343 48.15548901038629
lfingers 7.125020000000001
lthumb -139.17302201822764 253.12698172638665
rclavicle -5.008194911439268e-15 -1.0203021462344085e-14
rhumerus -14.617089888473316 1.2386019283137344 -98.17558533180474
rradius 59.2670043301794
rwrist -69.84307939867257
rhand -49.96819767012298 -10.106183747628208
rfingers 7.125020000000001
rthumb -22.558597137548862 -38.808284309339406
